<svg xmlns="http://www.w3.org/2000/svg" width="500" height="270" viewBox="0 0 500 270">
  <defs>
    <style>
      .mono { font-family: 'SFMono-Regular', Consolas, monospace; }
    </style>
  </defs>
  <rect width="500" height="270" rx="18" fill="#0d1117"/>
  <rect x="8" y="8" width="484" height="254" rx="12" fill="#0d1117" stroke="#30363d"/>
  <g fill="#d9dde6" class="mono" font-size="10">
    <g transform="translate(28,14)">
      <text x="0" y="0">.</text>
      <text x="10" y="0">.</text>
      <text x="20" y="0">.</text>
      <text x="30" y="0">.</text>
      <text x="40" y="0">.</text>
      <text x="50" y="0">.</text>
      <text x="60" y="0">.</text>
      <text x="70" y="0">.</text>
      <text x="80" y="0">.</text>
      <text x="90" y="0">.</text>
      <text x="100" y="0">.</text>
      <text x="110" y="0">.</text>
      <text x="120" y="0">.</text>
    </g>

    <g transform="translate(12,18)">
      <text x="0" y="0">......</text>
      <text x="40" y="0">....</text>
      <text x="80" y="0">......</text>
      <text x="120" y="0">......</text>
      <text x="160" y="0">.....</text>
      <text x="200" y="0">....</text>
      <text x="240" y="0">........</text>
    </g>
  </g>

  <g fill="#dfe8f4" class="mono" font-size="7">
    <g transform="translate(90,40)">
      <text x="0" y="0">....................</text>
      <text x="0" y="9">....................</text>
      <text x="0" y="18">....................</text>
      <text x="0" y="27">....................</text>
      <text x="0" y="36">....................</text>
      <text x="0" y="45">....................</text>
      <text x="0" y="54">....................</text>
      <text x="0" y="63">....................</text>
      <text x="0" y="72">....................</text>
      <text x="0" y="81">....................</text>
      <text x="0" y="90">....................</text>
      <text x="0" y="99">....................</text>
      <text x="0" y="108">....................</text>
      <text x="0" y="117">....................</text>
      <text x="0" y="126">....................</text>
      <text x="0" y="135">....................</text>
      <text x="0" y="144">....................</text>
      <text x="0" y="153">....................</text>
      <text x="0" y="162">....................</text>
      <text x="0" y="171">....................</text>
    </g>
  </g>

  <g class="mono" fill="#dfe8f4" font-size="7">
    <g transform="translate(80,48)">
      <text x="0" y="0">....................</text>
      <text x="0" y="9">.............@......</text>
      <text x="0" y="18">..............@@.....</text>
      <text x="0" y="27">.............@@@.....</text>
      <text x="0" y="36">............@@@@.....</text>
      <text x="0" y="45">..........@@@@@@.....</text>
      <text x="0" y="54">..........@@@@@@.....</text>
      <text x="0" y="63">........@@@..@@@....</text>
      <text x="0" y="72">.......@@@@....@@@@..</text>
      <text x="0" y="81">......@@@@......@@@@.</text>
      <text x="0" y="90">......@@@@......@@@@.</text>
      <text x="0" y="99">......@@@@......@@@@.</text>
      <text x="0" y="108">.......@@@@....@@@@..</text>
      <text x="0" y="117">........@@@..@@@....</text>
      <text x="0" y="126">...........@@@.......</text>
      <text x="0" y="135">..........@@@........</text>
      <text x="0" y="144">.............@........</text>
      <text x="0" y="153">....................</text>
    </g>
  </g>

  <g class="mono" fill="#dfe8f4" font-size="7">
    <g transform="translate(150,70)">
      <text x="0" y="0">.  o  .</text>
      <text x="0" y="10">/|  |\\</text>
      <text x="0" y="20">|  .. |</text>
      <text x="0" y="30">|  .. |</text>
      <text x="0" y="40">|_____|</text>
    </g>
  </g>

  <g fill="#7dd3fc" class="mono" font-size="9">
    <text x="36" y="242">avi@github ~ $ whoami</text>
  </g>
</svg>
